<mxfile host="app.diagrams.net" agent="Mozilla/5.0 (Windows NT 10.0; Win64; x64) AppleWebKit/537.36 (KHTML, like Gecko) Chrome/135.0.0.0 Safari/537.36" version="26.2.9">
  <diagram name="Page-1" id="lveBWBjYFaJ1FVjEa3Y1">
    <mxGraphModel dx="1044" dy="562" grid="1" gridSize="10" guides="1" tooltips="1" connect="1" arrows="1" fold="1" page="1" pageScale="1" pageWidth="850" pageHeight="1100" math="0" shadow="0">
      <root>
        <mxCell id="0" />
        <mxCell id="1" parent="0" />
        <mxCell id="N9PP1NkolzDJqJRNsQiU-1" value="" style="rounded=0;whiteSpace=wrap;html=1;dashed=1;" vertex="1" parent="1">
          <mxGeometry x="120" y="120" width="600" height="200" as="geometry" />
        </mxCell>
        <mxCell id="N9PP1NkolzDJqJRNsQiU-22" value="" style="endArrow=none;html=1;rounded=0;entryX=1;entryY=0.5;entryDx=0;entryDy=0;shape=link;strokeWidth=1;fillColor=#b0e3e6;strokeColor=#0e8088;" edge="1" parent="1">
          <mxGeometry width="50" height="50" relative="1" as="geometry">
            <mxPoint x="120" y="230" as="sourcePoint" />
            <mxPoint x="720" y="230" as="targetPoint" />
          </mxGeometry>
        </mxCell>
        <mxCell id="N9PP1NkolzDJqJRNsQiU-2" value="" style="image;sketch=0;aspect=fixed;html=1;points=[];align=center;fontSize=12;image=img/lib/mscae/Virtual_WANs.svg;" vertex="1" parent="1">
          <mxGeometry x="138.83" y="100" width="30" height="30" as="geometry" />
        </mxCell>
        <mxCell id="N9PP1NkolzDJqJRNsQiU-3" value="" style="image;sketch=0;aspect=fixed;html=1;points=[];align=center;fontSize=12;image=img/lib/mscae/Azure_Firewall.svg;" vertex="1" parent="1">
          <mxGeometry x="200" y="190" width="50" height="50" as="geometry" />
        </mxCell>
        <mxCell id="N9PP1NkolzDJqJRNsQiU-4" value="" style="image;sketch=0;aspect=fixed;html=1;points=[];align=center;fontSize=12;image=img/lib/mscae/Azure_Firewall.svg;" vertex="1" parent="1">
          <mxGeometry x="400" y="190" width="50" height="50" as="geometry" />
        </mxCell>
        <mxCell id="N9PP1NkolzDJqJRNsQiU-5" value="" style="image;sketch=0;aspect=fixed;html=1;points=[];align=center;fontSize=12;image=img/lib/mscae/Azure_Firewall.svg;" vertex="1" parent="1">
          <mxGeometry x="600" y="190" width="50" height="50" as="geometry" />
        </mxCell>
        <mxCell id="N9PP1NkolzDJqJRNsQiU-6" value="Secured HUB&lt;br&gt;Region 1" style="text;strokeColor=none;align=center;fillColor=none;html=1;verticalAlign=middle;whiteSpace=wrap;rounded=0;" vertex="1" parent="1">
          <mxGeometry x="180" y="240" width="90" height="30" as="geometry" />
        </mxCell>
        <mxCell id="N9PP1NkolzDJqJRNsQiU-7" value="Secured HUB&lt;br&gt;Region 2" style="text;strokeColor=none;align=center;fillColor=none;html=1;verticalAlign=middle;whiteSpace=wrap;rounded=0;" vertex="1" parent="1">
          <mxGeometry x="380" y="240" width="90" height="30" as="geometry" />
        </mxCell>
        <mxCell id="N9PP1NkolzDJqJRNsQiU-8" value="Secured HUB&lt;br&gt;Region 3" style="text;strokeColor=none;align=center;fillColor=none;html=1;verticalAlign=middle;whiteSpace=wrap;rounded=0;" vertex="1" parent="1">
          <mxGeometry x="580" y="240" width="90" height="30" as="geometry" />
        </mxCell>
        <mxCell id="N9PP1NkolzDJqJRNsQiU-23" value="" style="endArrow=classic;startArrow=classic;html=1;rounded=0;fillColor=#b0e3e6;strokeColor=#0e8088;dashed=1;" edge="1" parent="1">
          <mxGeometry width="50" height="50" relative="1" as="geometry">
            <mxPoint x="280" y="390" as="sourcePoint" />
            <mxPoint x="230" y="280" as="targetPoint" />
          </mxGeometry>
        </mxCell>
        <mxCell id="N9PP1NkolzDJqJRNsQiU-24" value="" style="endArrow=classic;startArrow=classic;html=1;rounded=0;fillColor=#b0e3e6;strokeColor=#0e8088;dashed=1;" edge="1" parent="1">
          <mxGeometry width="50" height="50" relative="1" as="geometry">
            <mxPoint x="425" y="390" as="sourcePoint" />
            <mxPoint x="425" y="280" as="targetPoint" />
          </mxGeometry>
        </mxCell>
        <mxCell id="N9PP1NkolzDJqJRNsQiU-25" value="" style="endArrow=classic;startArrow=classic;html=1;rounded=0;fillColor=#b0e3e6;strokeColor=#0e8088;dashed=1;" edge="1" parent="1">
          <mxGeometry width="50" height="50" relative="1" as="geometry">
            <mxPoint x="580" y="390" as="sourcePoint" />
            <mxPoint x="616.75" y="280" as="targetPoint" />
          </mxGeometry>
        </mxCell>
        <mxCell id="N9PP1NkolzDJqJRNsQiU-32" value="" style="rounded=0;whiteSpace=wrap;html=1;dashed=1;" vertex="1" parent="1">
          <mxGeometry x="110" y="400" width="90" height="80" as="geometry" />
        </mxCell>
        <mxCell id="N9PP1NkolzDJqJRNsQiU-33" value="" style="image;aspect=fixed;html=1;points=[];align=center;fontSize=12;image=img/lib/azure2/networking/Virtual_Networks.svg;" vertex="1" parent="1">
          <mxGeometry x="122.33" y="410.15" width="16.5" height="9.85" as="geometry" />
        </mxCell>
        <mxCell id="N9PP1NkolzDJqJRNsQiU-35" value="Azure Bastion" style="text;strokeColor=none;align=center;fillColor=none;html=1;verticalAlign=middle;whiteSpace=wrap;rounded=0;" vertex="1" parent="1">
          <mxGeometry x="110" y="455" width="90" height="30" as="geometry" />
        </mxCell>
        <mxCell id="N9PP1NkolzDJqJRNsQiU-36" value="Spoke A" style="text;strokeColor=none;align=center;fillColor=none;html=1;verticalAlign=middle;whiteSpace=wrap;rounded=0;" vertex="1" parent="1">
          <mxGeometry x="138.82999999999998" y="405.07" width="56.75" height="20" as="geometry" />
        </mxCell>
        <mxCell id="N9PP1NkolzDJqJRNsQiU-37" value="" style="rounded=0;whiteSpace=wrap;html=1;dashed=1;" vertex="1" parent="1">
          <mxGeometry x="230" y="400" width="90" height="80" as="geometry" />
        </mxCell>
        <mxCell id="N9PP1NkolzDJqJRNsQiU-38" value="" style="image;aspect=fixed;html=1;points=[];align=center;fontSize=12;image=img/lib/azure2/networking/Virtual_Networks.svg;" vertex="1" parent="1">
          <mxGeometry x="242.32999999999998" y="410.15" width="16.5" height="9.85" as="geometry" />
        </mxCell>
        <mxCell id="N9PP1NkolzDJqJRNsQiU-39" value="" style="image;aspect=fixed;html=1;points=[];align=center;fontSize=12;image=img/lib/azure2/compute/Virtual_Machine.svg;" vertex="1" parent="1">
          <mxGeometry x="258.8299999999999" y="430" width="32.35" height="30" as="geometry" />
        </mxCell>
        <mxCell id="N9PP1NkolzDJqJRNsQiU-40" value="Virtual Machine" style="text;strokeColor=none;align=center;fillColor=none;html=1;verticalAlign=middle;whiteSpace=wrap;rounded=0;" vertex="1" parent="1">
          <mxGeometry x="230" y="455" width="90" height="30" as="geometry" />
        </mxCell>
        <mxCell id="N9PP1NkolzDJqJRNsQiU-41" value="Spoke B" style="text;strokeColor=none;align=center;fillColor=none;html=1;verticalAlign=middle;whiteSpace=wrap;rounded=0;" vertex="1" parent="1">
          <mxGeometry x="258.83" y="405.07" width="56.75" height="20" as="geometry" />
        </mxCell>
        <mxCell id="N9PP1NkolzDJqJRNsQiU-42" value="" style="rounded=0;whiteSpace=wrap;html=1;dashed=1;" vertex="1" parent="1">
          <mxGeometry x="380" y="400" width="90" height="80" as="geometry" />
        </mxCell>
        <mxCell id="N9PP1NkolzDJqJRNsQiU-43" value="" style="image;aspect=fixed;html=1;points=[];align=center;fontSize=12;image=img/lib/azure2/networking/Virtual_Networks.svg;" vertex="1" parent="1">
          <mxGeometry x="392.33" y="410.15" width="16.5" height="9.85" as="geometry" />
        </mxCell>
        <mxCell id="N9PP1NkolzDJqJRNsQiU-44" value="" style="image;aspect=fixed;html=1;points=[];align=center;fontSize=12;image=img/lib/azure2/compute/Virtual_Machine.svg;" vertex="1" parent="1">
          <mxGeometry x="408.8299999999999" y="430" width="32.35" height="30" as="geometry" />
        </mxCell>
        <mxCell id="N9PP1NkolzDJqJRNsQiU-45" value="Virtual Machine" style="text;strokeColor=none;align=center;fillColor=none;html=1;verticalAlign=middle;whiteSpace=wrap;rounded=0;" vertex="1" parent="1">
          <mxGeometry x="380" y="455" width="90" height="30" as="geometry" />
        </mxCell>
        <mxCell id="N9PP1NkolzDJqJRNsQiU-46" value="Spoke C" style="text;strokeColor=none;align=center;fillColor=none;html=1;verticalAlign=middle;whiteSpace=wrap;rounded=0;" vertex="1" parent="1">
          <mxGeometry x="408.83" y="405.07" width="56.75" height="20" as="geometry" />
        </mxCell>
        <mxCell id="N9PP1NkolzDJqJRNsQiU-57" value="" style="rounded=0;whiteSpace=wrap;html=1;dashed=1;" vertex="1" parent="1">
          <mxGeometry x="540" y="400" width="90" height="80" as="geometry" />
        </mxCell>
        <mxCell id="N9PP1NkolzDJqJRNsQiU-58" value="" style="image;aspect=fixed;html=1;points=[];align=center;fontSize=12;image=img/lib/azure2/networking/Virtual_Networks.svg;" vertex="1" parent="1">
          <mxGeometry x="552.33" y="410.15" width="16.5" height="9.85" as="geometry" />
        </mxCell>
        <mxCell id="N9PP1NkolzDJqJRNsQiU-59" value="" style="image;aspect=fixed;html=1;points=[];align=center;fontSize=12;image=img/lib/azure2/compute/Virtual_Machine.svg;" vertex="1" parent="1">
          <mxGeometry x="568.8299999999999" y="430" width="32.35" height="30" as="geometry" />
        </mxCell>
        <mxCell id="N9PP1NkolzDJqJRNsQiU-60" value="Virtual Machine" style="text;strokeColor=none;align=center;fillColor=none;html=1;verticalAlign=middle;whiteSpace=wrap;rounded=0;" vertex="1" parent="1">
          <mxGeometry x="540" y="455" width="90" height="30" as="geometry" />
        </mxCell>
        <mxCell id="N9PP1NkolzDJqJRNsQiU-61" value="Spoke D" style="text;strokeColor=none;align=center;fillColor=none;html=1;verticalAlign=middle;whiteSpace=wrap;rounded=0;" vertex="1" parent="1">
          <mxGeometry x="568.83" y="405.07" width="56.75" height="20" as="geometry" />
        </mxCell>
        <mxCell id="N9PP1NkolzDJqJRNsQiU-62" value="" style="rounded=0;whiteSpace=wrap;html=1;dashed=1;" vertex="1" parent="1">
          <mxGeometry x="660" y="400" width="90" height="80" as="geometry" />
        </mxCell>
        <mxCell id="N9PP1NkolzDJqJRNsQiU-63" value="" style="image;aspect=fixed;html=1;points=[];align=center;fontSize=12;image=img/lib/azure2/networking/Virtual_Networks.svg;" vertex="1" parent="1">
          <mxGeometry x="672.33" y="410.15" width="16.5" height="9.85" as="geometry" />
        </mxCell>
        <mxCell id="N9PP1NkolzDJqJRNsQiU-64" value="" style="image;aspect=fixed;html=1;points=[];align=center;fontSize=12;image=img/lib/azure2/compute/Virtual_Machine.svg;" vertex="1" parent="1">
          <mxGeometry x="688.8299999999999" y="430" width="32.35" height="30" as="geometry" />
        </mxCell>
        <mxCell id="N9PP1NkolzDJqJRNsQiU-65" value="Virtual Machine" style="text;strokeColor=none;align=center;fillColor=none;html=1;verticalAlign=middle;whiteSpace=wrap;rounded=0;" vertex="1" parent="1">
          <mxGeometry x="660" y="455" width="90" height="30" as="geometry" />
        </mxCell>
        <mxCell id="N9PP1NkolzDJqJRNsQiU-66" value="Spoke E" style="text;strokeColor=none;align=center;fillColor=none;html=1;verticalAlign=middle;whiteSpace=wrap;rounded=0;" vertex="1" parent="1">
          <mxGeometry x="688.83" y="405.07" width="56.75" height="20" as="geometry" />
        </mxCell>
        <mxCell id="N9PP1NkolzDJqJRNsQiU-67" value="" style="endArrow=classic;startArrow=classic;html=1;rounded=0;fillColor=#b0e3e6;strokeColor=#0e8088;dashed=1;" edge="1" parent="1">
          <mxGeometry width="50" height="50" relative="1" as="geometry">
            <mxPoint x="700" y="390" as="sourcePoint" />
            <mxPoint x="630" y="280" as="targetPoint" />
          </mxGeometry>
        </mxCell>
        <mxCell id="N9PP1NkolzDJqJRNsQiU-68" value="" style="image;aspect=fixed;html=1;points=[];align=center;fontSize=12;image=img/lib/azure2/networking/Bastions.svg;" vertex="1" parent="1">
          <mxGeometry x="140.5" y="428" width="29" height="34" as="geometry" />
        </mxCell>
        <mxCell id="N9PP1NkolzDJqJRNsQiU-69" value="" style="endArrow=classic;startArrow=classic;html=1;rounded=0;fillColor=#b0e3e6;strokeColor=#0e8088;dashed=1;" edge="1" parent="1">
          <mxGeometry width="50" height="50" relative="1" as="geometry">
            <mxPoint x="160" y="390" as="sourcePoint" />
            <mxPoint x="208.82999999999998" y="280" as="targetPoint" />
          </mxGeometry>
        </mxCell>
      </root>
    </mxGraphModel>
  </diagram>
</mxfile>
